Coordinates
version=1
nRows=7
nColumns=42
inDegrees=yes

Units are S.I. units (second, meters, Newtons, ...)
If the header above contains a line with 'inDegrees', this indicates whether rotational values are in degrees (yes) or radians (no).

endheader
time	pelvis_tilt	pelvis_list	pelvis_rotation	pelvis_tx	pelvis_ty	pelvis_tz	hip_flexion_r	hip_adduction_r	hip_rotation_r	knee_angle_r	knee_adduction_r	knee_angle_r_beta	ankle_angle_r	subtalar_angle_r	mtp_angle_r	hip_flexion_l	hip_adduction_l	hip_rotation_l	knee_angle_l	knee_adduction_l	knee_angle_l_beta	ankle_angle_l	subtalar_angle_l	mtp_angle_l	lumbar_extension	lumbar_bending	lumbar_rotation	arm_flex_r	arm_add_r	arm_rot_r	elbow_flex_r	pro_sup_r	wrist_flex_r	wrist_dev_r	arm_flex_l	arm_add_l	arm_rot_l	elbow_flex_l	pro_sup_l	wrist_flex_l	wrist_dev_l
      0.00000000	     11.94134394	      5.78505470	     -4.57414214	     -1.94147288	      0.96830019	      0.23840976	     -8.53432299	    -12.75494027	     -8.97857674	     61.47397779	     -2.77099952	      1.07292332	      5.79733417	     -8.05487409	     -9.36647990	     -0.14552176	      5.72630382	    -14.08074422	     16.25054382	      1.65684591	      0.28362549	     12.62204692	     16.56587994	     -9.36647990	    -27.28505022	     -6.53185253	     -2.07810932	     -2.46112250	     -8.21064016	      6.13111075	     30.91562257	     90.00000001	      0.00000000	      0.00000000	     -4.63983133	     -9.78337762	     -4.89615509	     34.75328795	     90.00000001	      0.00000000	      0.00000000
      0.01000000	     11.90007294	      5.56488016	     -4.44121338	     -1.93540455	      0.96941406	      0.23774782	     -7.67172823	    -12.42948337	     -9.00032024	     61.63000693	     -2.81919946	      1.07564654	      6.30424748	     -7.97008849	     -9.34468363	     -0.71648814	      5.61366602	    -14.02286895	     15.85841644	      1.59428559	      0.27678158	     12.74857855	     16.71826919	     -9.34468363	    -27.28364398	     -6.15763370	     -2.20470680	     -2.52373184	     -8.21953819	      6.13320667	     30.82994992	     90.00000001	      0.00000000	      0.00000000	     -4.29259716	     -9.90469316	     -4.86520825	     34.90884083	     90.00000001	      0.00000000	      0.00000000
      0.02000000	     11.84550259	      5.27723118	     -4.25282513	     -1.92728829	      0.97083277	      0.23694762	     -6.56190057	    -12.00107656	     -9.04882032	     61.72826267	     -2.83521210	      1.07736143	      7.01141499	     -7.76190434	     -9.32180259	     -1.50751230	      5.43838524	    -13.89121404	     15.28340627	      1.58028601	      0.26674576	     12.94031975	     16.95450574	     -9.32180259	    -27.27330746	     -5.68515359	     -2.36539588	     -2.63193700	     -8.21633888	      6.11863856	     30.72787544	     90.00000001	      0.00000000	      0.00000000	     -3.82571929	    -10.07951316	     -4.81290802	     35.14008199	     90.00000001	      0.00000000	      0.00000000
      0.03000000	     11.78085739	      4.91039857	     -4.05920903	     -1.91725432	      0.97248333	      0.23613077	     -5.24307301	    -11.43744726	     -9.10715202	     61.66340805	     -2.87265106	      1.07622950	      8.00914414	     -7.38832763	     -9.29529298	     -2.54531379	      5.18773048	    -13.58793793	     14.45794690	      1.63133966	      0.25233878	     13.20971607	     17.33373032	     -9.29529298	    -27.24185623	     -5.11884358	     -2.48689149	     -2.78664636	     -8.20002714	      6.07555289	     30.58573985	     90.00000001	      0.00000000	      0.00000000	     -3.26076036	    -10.32711619	     -4.73558147	     35.45380855	     90.00000001	      0.00000000	      0.00000000
      0.04000000	     12.12286043	      4.46481623	     -3.77145329	     -1.90514488	      0.97492676	      0.23523897	     -4.40678355	    -10.78370448	     -9.63232356	     61.11105280	     -3.10133514	      1.06658908	      9.43302820	     -5.79007575	     -9.20788742	     -4.43138738	      4.88348104	    -12.79127177	     13.11660937	      1.87018266	      0.22892802	     13.37404799	     17.40305138	     -9.20788742	    -27.61397734	     -4.44229745	     -2.69650659	     -3.01358342	     -8.10993840	      5.80076391	     30.51423291	     90.00000001	      0.00000000	      0.00000000	     -2.65772771	    -10.65213523	     -4.46554879	     35.90294774	     90.00000001	      0.00000000	      0.00000000
      0.05000000	     12.12318872	      4.03925540	     -3.48270481	     -1.89218156	      0.97677376	      0.23413385	     -2.95953019	    -10.14572887	     -9.90847606	     60.58709172	     -3.10438229	      1.05744423	     10.62693386	     -4.94245574	     -9.12374946	     -5.93128540	      4.60560188	    -12.07927829	     11.89261458	      1.98276109	      0.20756528	     13.51244363	     17.32181330	     -9.12374946	    -27.62933557	     -3.75081668	     -2.90530062	     -3.25292728	     -8.07459222	      5.64280053	     30.39622424	     90.00000001	      0.00000000	      0.00000000	     -2.01366552	    -10.95443098	     -4.37302563	     36.40567866	     90.00000001	      0.00000000	      0.00000000
      0.06000000	     12.05893741	      3.62951940	     -3.19676661	     -1.87844033	      0.97843086	      0.23304668	     -1.37901525	     -9.51881826	    -10.25511118	     59.80430307	     -3.08692013	      1.04378200	     11.68440694	     -4.22716319	     -8.97725184	     -7.48652273	      4.34744948	    -11.15164431	     10.49069274	      2.10902109	      0.18309713	     13.47724883	     16.80119870	     -8.97725184	    -27.57557541	     -3.07987923	     -3.14179640	     -3.50542799	     -8.02225635	      5.47498122	     30.30539333	     90.00000001	      0.00000000	      0.00000000	     -1.37368191	    -11.29520535	     -4.30671331	     37.01120621	     90.00000001	      0.00000000	      0.00000000
